<svg xmlns="http://www.w3.org/2000/svg">

<!-- burger -->
<symbol id="menu" viewBox="0 0 23 23">
 <g fill="#81B3D2">
  <path d="M23 0H0v4h23V0ZM23 9H0v4h23V9ZM23 18H0v4h23v-4Z"
  stroke-width="3" stroke-linecap="round"/>
 </g>
</symbol>

<!-- cross -->
<symbol id="cross" viewBox="0 0 23 23">
<g fill="#FFFFFF">
  <path d="m22 3-3-3-8 8-8-8-3 3 8 8-8 8 3 3 8-8 8 8 3-3-8-8 8-8Z"
  stroke-width="3" stroke-linecap="round"/>
  </g>
</symbol>

<!--  reply -->

 <symbol id="reply" viewBox="0 0 16 20">
<g>
  <path d="M8 4V0L3 5l5 5V6c3 0 6 3 6 6s-3 6-6 6-6-3-6-6H0c0 4 4 8 8 8s8-4 8-8-4-8-8-8Z"
  stroke-width="3" stroke-linecap="round"/>
  </g>
</symbol>

<!-- subtitles -->
<symbol id="subtitles" viewBox="0 0 32 20">
<g>
  <path d="M29 0H3C1 0 0 1 0 3v14c0 2 1 3 3 3h26c2 0 3-1 3-3V3c0-2-1-3-3-3ZM14 16h-3l-2-1-1-2V7l1-2 2-1a10 10 0 0 1 4 0h1l-1 2h-2l-2 1-1 3v2l1 1 1 1h3l1 1-2 1Zm9 0h-4l-1-1-1-2-1-3 1-3 1-2 2-1a10 10 0 0 1 3 0h1v2h-2l-2 1-1 3v2l1 1 1 1h3l1 1-2 1Z"
  stroke-width="3" stroke-linecap="round"/>
  </g>
</symbol>

<!-- fullscreen -->
<symbol id="fullscreen" viewBox="0 0 32 32">
<g>
  <path d="M0 0v6h3V3h3V0H0Zm3 14H0v6h6v-3H3v-3ZM17 0h-3v3h3v3h3V0h-3Zm0 17h-3v3h6v-6h-3v3Z"
  stroke-width="3" stroke-linecap="round"/>
  </g>
</symbol>

<!-- twitter -->
<symbol id="twitter" viewBox="0 0 18 15">
<g fill="#fff">
 <path d="m11 0 4 1h2l-1 1h2l-2 2c0 6-3 11-10 11H5l-5-2 5-1c-1-1-3-1-3-3h1C2 8 0 7 1 5l1 1C1 5 0 2 1 1l7 4 3-5Z"
 stroke-width="3" stroke-linecap="round"/>
  </g>
</symbol>

<!-- facebook -->
<symbol id="facebook" viewBox="0 0 9 19">
<g fill="#fff">
 <path d="M6 3h3V0H6C3 0 2 2 2 6H0v4h2v9h4v-9h3V6H6V3Z"
 stroke-width="3" stroke-linecap="round"/>
  </g>
</symbol>

<!-- youtube -->
<symbol id="youtube" viewBox="0 0 20 14">
<g fill="#fff">
 <path d="M17 0H3C1 0 0 1 0 3v8c0 2 1 3 3 3h14c2 0 3-1 3-3V3c0-2-1-3-3-3ZM7 10V4l7 3-7 3Z"
 stroke-width="3" stroke-linecap="round"/>
  </g>
</symbol>

<!-- HTMLacademy -->
<symbol id="htmlacademy" viewBox="0 0 27 35">
<g>
 <path d="M14 0 0 1v25l14 8 13-8V1L14 0Zm11 12L14 5h-1L2 12V3l11-1 12 1v9ZM13 7l12 7-5 2-7-4v1l6 4h-1l-5-3v2l4 2-1 1-3-2v1l2 1-2 1-11-6 11-7ZM2 15l11 7v1l-8-5v2l8 4v2l-8-5v1l8 5 9-5v-5l3-2v10l-12 7-11-7V15Z"
 stroke-width="3" stroke-linecap="round"/>
  </g>
</symbol>

</svg>
